<?xml version="1.0" standalone="no"?>
<!DOCTYPE svg PUBLIC "-//W3C//DTD SVG 20010904//EN"
 "http://www.w3.org/TR/2001/REC-SVG-20010904/DTD/svg10.dtd">
<svg version="1.0" xmlns="http://www.w3.org/2000/svg"
 width="1254.000000pt" height="1254.000000pt" viewBox="0 0 1254.000000 1254.000000"
 preserveAspectRatio="xMidYMid meet">

<g transform="translate(0.000000,1254.000000) scale(0.100000,-0.100000)"
fill="#000000" stroke="none">
<path d="M0 6270 l0 -6270 6270 0 6270 0 0 6270 0 6270 -6270 0 -6270 0 0
-6270z m6640 3155 c553 -99 1021 -372 1363 -796 l37 -46 -163 -103 c-89 -57
-241 -154 -338 -216 l-176 -113 -104 103 c-381 375 -920 500 -1425 331 -191
-64 -382 -184 -534 -335 -205 -203 -322 -424 -387 -730 -13 -65 -18 -130 -18
-270 l0 -185 -75 2 c-41 0 -140 2 -220 4 l-145 3 145 6 c80 3 125 7 100 9
l-45 4 50 6 c28 3 68 4 90 1 l40 -4 -45 -7 c-42 -6 -40 -6 23 -7 l67 -2 -6 43
c-8 55 -24 72 -25 26 0 -18 -3 -28 -6 -20 -4 8 -8 10 -12 3 -7 -12 -97 -19
-107 -9 -4 4 2 7 14 7 12 0 22 5 22 10 0 6 -8 10 -17 10 -17 1 -17 1 0 11 9 5
22 7 27 4 6 -3 10 -1 10 4 0 12 -11 14 -50 11 -24 -2 -25 -1 -5 14 13 10 15
15 6 16 -8 0 -11 6 -6 18 5 14 3 13 -13 -3 -12 -13 -30 -20 -48 -19 -16 1 -46
3 -67 3 -25 1 -36 5 -31 12 3 6 19 9 35 5 15 -3 31 -1 34 4 7 11 16 11 -180
16 -179 6 -175 5 -169 15 2 4 33 6 68 4 62 -3 63 -2 53 19 -8 17 -21 23 -54
25 -56 3 -56 -17 0 -22 l42 -4 -47 -1 c-37 -2 -48 2 -48 13 0 11 -12 15 -50
15 -60 0 -67 -16 -8 -18 68 -3 57 -12 -15 -12 -36 0 -74 -3 -84 -7 -16 -6 -17
-5 -3 12 14 17 14 18 -8 6 -31 -16 -322 -11 -322 6 0 13 141 30 159 19 6 -4
44 -4 84 0 l74 7 2 76 c7 336 127 718 327 1041 163 265 412 512 686 682 257
160 601 282 893 317 122 15 492 6 605 -14z m-2822 -1217 c8 -10 -27 -13 -169
-13 l-179 0 -26 -26 c-14 -15 -35 -51 -45 -80 -14 -40 -17 -45 -13 -19 10 66
25 99 55 125 30 25 33 25 199 25 122 0 170 -3 178 -12z m5281 -9 c24 -23 56
-87 47 -96 -2 -3 -14 13 -25 35 -11 22 -28 43 -38 46 -32 12 -278 18 -316 8
-27 -8 -35 -7 -30 0 4 8 0 9 -12 4 -15 -5 -16 -4 -5 9 10 12 43 15 184 15 162
0 174 -1 195 -21z m100 -331 c31 -184 41 -292 46 -518 4 -215 1 -232 -12 -65
-4 55 -9 88 -11 74 -3 -24 -7 -26 -43 -25 -25 0 -38 5 -35 12 3 9 -3 9 -24 1
-16 -6 -26 -15 -23 -20 6 -10 -15 -27 -32 -27 -5 0 -3 5 5 10 22 15 -3 28 -47
24 -20 -1 -46 4 -60 13 -21 14 -23 14 -17 -1 5 -13 2 -15 -17 -8 -13 5 -27 20
-30 33 -4 13 -7 -38 -8 -113 -2 -229 -18 -163 -24 100 -4 156 -14 302 -27 397
-20 153 -23 200 -11 155 l7 -25 152 -1 c84 -1 156 -4 159 -8 4 -3 -65 -6 -152
-6 -87 0 -156 -2 -153 -5 4 -4 164 -12 306 -14 23 -1 32 -6 32 -18 0 -9 3 -14
6 -10 3 3 3 28 -1 56 -5 40 -10 49 -23 44 -13 -4 -14 -3 -3 5 10 7 12 24 7 63
-9 86 9 17 33 -123z m-5839 33 c-11 -62 -20 -123 -19 -135 0 -20 1 -21 9 -1 5
11 9 16 9 12 1 -4 11 -3 22 4 16 8 18 13 9 19 -9 5 -9 9 -1 14 6 4 8 13 5 19
-5 8 -3 8 7 0 15 -15 33 -17 24 -4 -3 5 0 13 6 17 8 4 9 3 5 -4 -9 -14 52 -16
73 -3 9 6 19 4 28 -5 15 -15 38 -9 28 7 -4 5 6 9 22 9 22 0 25 -2 13 -10 -13
-8 -12 -10 3 -10 9 0 17 4 17 9 0 5 11 11 25 13 14 3 25 1 25 -3 0 -5 -10 -9
-22 -10 -22 -1 -22 -1 2 -8 14 -5 28 -6 32 -4 4 2 14 37 23 79 10 41 19 73 22
70 3 -2 -5 -67 -16 -143 -27 -181 -41 -363 -41 -525 0 -72 -2 -129 -4 -127 -2
2 -6 43 -9 91 -3 47 -10 94 -17 105 -8 12 -10 13 -7 2 4 -13 -4 -15 -46 -15
-29 1 -67 -2 -84 -5 -19 -4 -30 -3 -27 2 3 5 0 9 -5 9 -6 0 -11 -5 -11 -11 0
-7 -10 -9 -26 -5 -20 5 -25 4 -21 -6 7 -18 -38 -18 -55 1 -11 11 -9 12 10 6
14 -4 22 -2 22 6 0 8 -10 9 -30 5 -26 -5 -32 -2 -40 17 -7 18 -9 12 -11 -28 0
-27 -5 -108 -9 -180 -6 -100 -7 -72 -4 120 5 294 19 441 65 673 20 99 19 47
-1 -67z m377 97 c-3 -8 -6 -5 -6 6 -1 11 2 17 5 13 3 -3 4 -12 1 -19z m-472
-78 c4 -6 -42 -10 -129 -10 -124 0 -138 -2 -156 -20 -12 -12 -25 -32 -31 -47
-5 -14 -12 -23 -15 -20 -7 6 22 65 44 90 13 15 34 17 148 17 78 0 135 -4 139
-10z m6303 -12 c21 -23 42 -69 42 -91 -1 -7 -10 6 -21 28 -31 62 -38 65 -187
65 -86 0 -131 4 -127 10 4 6 61 10 139 10 125 0 134 -1 154 -22z m-1185 -355
c3 -21 9 -84 13 -140 l7 -103 163 0 c125 0 164 -3 164 -12 0 -10 -37 -12 -164
-8 l-163 5 -6 -130 c-11 -217 -40 -374 -109 -589 -103 -323 -341 -685 -601
-915 -178 -157 -376 -284 -583 -374 -116 -51 -289 -110 -305 -105 -6 2 31 17
82 32 129 40 296 113 401 176 l27 16 -22 14 c-20 12 -21 12 -8 -3 10 -13 11
-17 1 -17 -7 0 -18 7 -25 16 -11 16 -67 25 -93 16 -9 -3 -10 -8 -2 -17 7 -9 8
-15 1 -19 -6 -4 -8 -13 -4 -21 3 -8 3 -15 -1 -15 -3 0 -9 14 -14 32 -4 18 -15
32 -26 34 -11 2 -16 -2 -12 -11 7 -19 -18 -37 -40 -29 -15 6 -17 4 -7 -6 10
-11 18 -11 39 -1 24 11 26 10 14 -3 -10 -13 -10 -16 0 -16 25 0 1 -13 -30 -16
-23 -3 -29 0 -24 9 5 7 0 5 -11 -3 -17 -14 -18 -13 -12 2 4 12 2 15 -9 11 -8
-3 -14 1 -14 8 0 8 -9 4 -23 -9 -13 -12 -27 -19 -31 -15 -4 4 -4 0 0 -10 11
-30 -5 -18 -21 16 -8 17 -13 24 -10 14 4 -14 1 -16 -12 -9 -10 6 -27 6 -45 0
-21 -7 -33 -7 -41 1 -7 7 -14 7 -23 0 -15 -12 -34 -4 -34 14 0 7 4 6 10 -3 11
-17 13 -10 4 14 -5 14 -8 14 -21 1 -8 -8 -11 -20 -7 -26 5 -8 3 -9 -6 -4 -27
17 -59 13 -81 -11 -21 -22 -23 -22 -36 -6 -11 13 -13 14 -12 2 3 -27 -1 -40
-11 -40 -5 0 -6 7 -3 17 4 11 3 14 -5 9 -7 -4 -12 -3 -12 3 0 7 -8 7 -26 1
-21 -8 -29 -7 -41 7 -8 10 -12 12 -8 6 5 -11 -45 -67 -52 -59 -2 1 1 16 6 34
9 29 8 30 -12 23 -13 -5 -21 -16 -19 -25 2 -11 -11 -3 -33 19 -40 39 -50 43
-41 19 5 -13 1 -15 -19 -11 -20 3 -25 1 -20 -11 4 -12 3 -13 -10 -2 -12 10
-15 10 -15 0 0 -8 -3 -10 -6 -7 -4 4 -1 14 7 24 13 16 12 16 -16 1 -16 -9 -38
-19 -48 -22 -10 -3 -16 -9 -13 -14 2 -4 1 -14 -5 -22 -7 -13 -9 -12 -9 3 0 9
-7 17 -15 17 -9 0 -15 -6 -14 -12 1 -7 1 -21 0 -31 -1 -16 -3 -17 -16 -3 -8 8
-15 19 -15 24 0 5 -6 9 -14 9 -8 0 -12 -6 -9 -13 2 -7 -5 -18 -17 -24 -20 -11
-21 -10 -10 10 6 12 9 24 6 28 -3 3 -6 -1 -6 -9 0 -12 -2 -11 -11 1 -9 13 -10
12 -5 -2 6 -19 -9 -25 -19 -8 -9 14 -26 12 -24 -2 3 -26 -1 -39 -12 -33 -5 4
-19 -1 -29 -10 -17 -15 -19 -14 -33 15 -9 16 -12 28 -7 25 5 -3 2 8 -6 25 -16
31 -34 48 -34 31 0 -5 6 -11 13 -14 6 -2 9 -7 6 -11 -4 -4 -19 -1 -34 6 -23
10 -29 10 -33 0 -3 -9 -8 -9 -24 2 -21 15 -48 11 -48 -6 0 -5 4 -7 9 -4 5 3
20 -3 32 -15 l24 -21 -24 16 c-17 11 -29 12 -42 5 -15 -7 -17 -6 -13 6 5 11 2
13 -10 9 -20 -8 -20 -9 0 -38 12 -20 13 -26 2 -32 -7 -4 -10 -3 -5 1 4 5 0 19
-9 32 -13 20 -13 27 -2 40 11 14 9 14 -19 -1 -18 -9 -33 -13 -33 -9 0 4 -7 -3
-16 -15 -14 -21 -41 -22 -29 -1 4 5 -2 6 -12 2 -17 -6 -17 -5 1 15 11 12 14
22 9 22 -14 0 -27 -30 -24 -53 2 -16 -2 -18 -31 -12 -18 4 -45 14 -60 21 -16
8 -28 10 -28 5 0 -21 270 -102 454 -136 39 -7 59 -13 44 -14 -103 -4 -460 100
-623 181 -197 98 -421 248 -410 276 4 12 3 13 -9 3 -10 -8 -21 -9 -32 -3 -16
9 35 53 469 403 l118 96 102 -54 c209 -108 408 -156 647 -156 229 0 386 36
596 138 329 160 597 482 687 828 l15 57 -910 0 -910 0 33 43 c66 84 354 444
437 545 l84 102 1033 0 1032 0 6 -37z m-5492 -178 c-6 -104 -14 -191 -17 -194
-6 -6 3 264 11 304 2 11 4 35 4 54 1 19 3 32 6 29 3 -3 1 -90 -4 -193z m6489
12 c2 -48 0 -90 -4 -94 -3 -3 -6 30 -6 74 0 44 -2 109 -5 144 -4 61 -4 61 4
14 5 -27 10 -90 11 -138z m-6209 3 c-7 -129 -8 -135 -9 -55 -2 89 9 244 15
215 2 -8 -1 -80 -6 -160z m6476 98 c-2 -13 -4 -5 -4 17 -1 22 1 32 4 23 2 -10
2 -28 0 -40z m10 -140 c-2 -24 -4 -7 -4 37 0 44 2 63 4 43 2 -21 2 -57 0 -80z
m-6860 56 c-3 -4 -46 -8 -94 -10 -75 -3 -91 -7 -105 -25 -10 -12 -18 -16 -18
-10 0 6 9 20 20 31 17 17 33 20 112 20 50 0 89 -3 85 -6z m7143 -14 c11 -11
20 -24 20 -30 0 -5 -9 -1 -20 10 -17 17 -33 20 -104 20 -47 0 -88 5 -91 10 -4
6 27 10 84 10 78 0 94 -3 111 -20z m-6370 -46 c0 -2 -7 -4 -15 -4 -8 0 -15 4
-15 10 0 5 7 7 15 4 8 -4 15 -8 15 -10z m5480 -36 c0 -4 -4 -8 -9 -8 -6 0 -12
4 -15 8 -3 5 1 9 9 9 8 0 15 -4 15 -9z m-5233 -120 c-2 -18 -4 -6 -4 27 0 33
2 48 4 33 2 -15 2 -42 0 -60z m422 67 c9 -9 -141 -3 -164 6 -12 5 17 7 69 4
49 -3 92 -7 95 -10z m4488 -82 c-2 -21 -4 -6 -4 32 0 39 2 55 4 38 2 -18 2
-50 0 -70z m-4351 55 c4 -5 45 -5 91 -1 79 6 83 5 83 -15 0 -18 6 -20 66 -21
37 0 69 -3 72 -6 3 -3 -71 -4 -164 -3 -102 1 -132 3 -76 5 111 4 124 22 15 21
-101 0 -105 0 -98 12 9 15 -4 12 -21 -5 -18 -18 -49 -9 -32 9 12 13 52 15 64
4z m-306 -8 c0 -5 -8 -10 -17 -10 -15 0 -16 2 -3 10 19 12 20 12 20 0z m134 2
c3 -5 -1 -9 -9 -9 -8 0 -12 4 -9 9 3 4 7 8 9 8 2 0 6 -4 9 -8z m-97 -8 c-3 -3
-12 -4 -19 -1 -8 3 -5 6 6 6 11 1 17 -2 13 -5z m40 0 c-3 -3 -12 -4 -19 -1 -8
3 -5 6 6 6 11 1 17 -2 13 -5z m223 -54 c0 -5 -7 -10 -16 -10 -8 0 -12 5 -9 10
3 6 10 10 16 10 5 0 9 -4 9 -10z m335 -4 c11 -2 -32 -3 -95 -3 -69 0 -97 2
-70 6 42 6 120 4 165 -3z m-888 -68 c-2 -13 -4 -3 -4 22 0 25 2 35 4 23 2 -13
2 -33 0 -45z m601 45 c-10 -2 -28 -2 -40 0 -13 2 -5 4 17 4 22 1 32 -1 23 -4z
m80 0 c-10 -2 -28 -2 -40 0 -13 2 -5 4 17 4 22 1 32 -1 23 -4z m170 -10 c-15
-2 -42 -2 -60 0 -18 2 -6 4 27 4 33 0 48 -2 33 -4z m-41 -29 c-3 -3 -12 -4
-19 -1 -8 3 -5 6 6 6 11 1 17 -2 13 -5z m-594 -21 c-7 -2 -19 -2 -25 0 -7 3
-2 5 12 5 14 0 19 -2 13 -5z m340 0 c-23 -2 -64 -2 -90 0 -26 2 -7 3 42 3 50
0 71 -1 48 -3z m74 1 c-3 -3 -12 -4 -19 -1 -8 3 -5 6 6 6 11 1 17 -2 13 -5z
m516 -246 c34 -109 116 -274 183 -370 l53 -76 -27 -17 c-15 -10 -22 -12 -15
-5 10 10 6 21 -16 49 -73 93 -150 243 -203 394 l-23 67 -351 0 -352 0 19 -77
c22 -88 84 -280 106 -333 9 -19 33 -69 54 -112 43 -83 44 -88 28 -88 -10 0
-63 106 -92 185 -8 22 -29 76 -47 120 -17 44 -47 135 -65 202 -18 68 -36 127
-40 133 -4 7 120 10 378 10 l385 0 25 -82z m-205 25 c-10 -2 -28 -2 -40 0 -13
2 -5 4 17 4 22 1 32 -1 23 -4z m-267 -698 c8 -16 6 -15 -10 4 -12 13 -21 28
-21 35 0 12 14 -5 31 -39z m89 -130 c28 -45 28 -47 5 -20 -37 43 -85 112 -85
122 1 12 46 -45 80 -102z m2655 -617 c14 -6 25 -15 25 -20 0 -12 -10 -10 -27
8 -9 8 -22 13 -30 10 -8 -3 -11 -1 -8 4 8 13 9 12 40 -2z m-517 -70 c-2 -5 -8
-9 -13 -9 -5 0 -11 4 -13 9 -1 5 4 9 13 9 9 0 14 -4 13 -9z m296 -9 c-7 -12
-44 -12 -44 0 0 5 6 11 13 14 17 6 38 -3 31 -14z m-89 1 c3 -5 1 -10 -4 -10
-6 0 -11 5 -11 10 0 6 2 10 4 10 3 0 8 -4 11 -10z m215 6 c0 -9 -59 -34 -65
-28 -5 5 25 20 63 31 1 1 2 -1 2 -3z m-456 -22 c3 -8 2 -12 -4 -9 -6 3 -10 10
-10 16 0 14 7 11 14 -7z m-424 -4 c0 -5 -5 -10 -11 -10 -5 0 -7 5 -4 10 3 6 8
10 11 10 2 0 4 -4 4 -10z m320 -12 c0 -4 -4 -8 -9 -8 -6 0 -12 4 -15 8 -3 5 1
9 9 9 8 0 15 -4 15 -9z m-665 -7 c-3 -6 -14 -9 -25 -8 -24 2 -15 17 11 17 11
0 18 -4 14 -9z m968 -18 c-4 -11 -3 -14 5 -9 7 4 12 3 12 -2 0 -6 -8 -13 -17
-16 -10 -4 -14 -4 -10 0 4 4 2 13 -4 21 -9 10 -8 13 0 13 7 0 9 5 5 12 -4 7
-3 8 4 4 6 -4 8 -14 5 -23z m-1155 3 c-7 -8 -15 -12 -17 -11 -5 6 10 25 20 25
5 0 4 -6 -3 -14z m717 3 c11 -16 1 -19 -13 -3 -7 8 -8 14 -3 14 5 0 13 -5 16
-11z m-498 -26 c7 -6 12 -20 12 -30 -1 -17 -2 -17 -6 0 -2 9 -9 17 -14 17 -12
0 -11 -7 1 -30 8 -16 8 -18 -5 -14 -8 3 -12 10 -9 15 3 5 1 9 -4 9 -6 0 -9 11
-8 24 1 26 12 29 33 9z m350 1 c-3 -3 -12 -4 -19 -1 -8 3 -5 6 6 6 11 1 17 -2
13 -5z m-403 -16 c-3 -4 -9 -8 -15 -8 -5 0 -9 4 -9 8 0 5 7 9 15 9 8 0 12 -4
9 -9z m281 -97 c-6 -5 -25 10 -25 20 0 5 6 4 14 -3 8 -7 12 -15 11 -17z m558
22 c-7 -2 -19 -2 -25 0 -7 3 -2 5 12 5 14 0 19 -2 13 -5z m-100 -20 c-7 -2
-19 -2 -25 0 -7 3 -2 5 12 5 14 0 19 -2 13 -5z m-413 -22 l45 -8 -60 -1 c-33
0 -82 3 -110 8 l-50 7 65 1 c36 0 85 -3 110 -7z m257 3 c-3 -3 -12 -4 -19 -1
-8 3 -5 6 6 6 11 1 17 -2 13 -5z m-180 -10 c-3 -3 -12 -4 -19 -1 -8 3 -5 6 6
6 11 1 17 -2 13 -5z m-2959 -431 c50 -52 53 -60 48 -92 -3 -20 -6 -51 -6 -68
l0 -33 -513 0 c-480 0 -515 -1 -547 -19 -62 -33 -70 -52 -101 -267 -35 -237
-35 -269 4 -298 27 -20 41 -21 376 -24 205 -2 358 1 373 7 21 8 26 18 32 63 4
29 9 68 12 86 l6 32 -230 0 -230 0 66 115 67 115 332 0 c183 0 333 -3 333 -7
0 -5 -14 -105 -31 -223 -22 -150 -37 -224 -50 -246 -23 -37 -142 -145 -186
-167 -28 -15 -86 -17 -527 -17 -579 0 -547 -5 -632 99 -30 36 -59 81 -65 101
-8 28 -1 97 35 342 25 169 49 316 55 326 21 40 184 184 234 208 l52 24 520 0
519 0 54 -57z m603 -5 c30 -35 113 -130 183 -213 71 -82 135 -157 143 -165 11
-13 43 16 241 213 l227 227 200 0 200 0 -245 -237 c-135 -130 -298 -289 -363
-353 l-119 -116 -27 -199 -27 -198 -69 2 -70 2 -76 75 -75 75 16 122 15 122
-204 245 c-113 135 -245 291 -293 347 -48 56 -88 105 -88 108 0 3 85 5 188 5
l188 0 55 -62z m1793 -155 c272 -381 318 -443 325 -443 6 0 241 251 531 567
l85 93 170 -3 170 -2 -3 -40 c-2 -22 -21 -170 -43 -330 -22 -159 -51 -373 -64
-475 -14 -102 -27 -201 -30 -220 l-6 -35 -149 0 c-131 0 -150 2 -150 16 0 17
75 580 85 637 6 32 3 30 -67 -45 -70 -74 -356 -377 -503 -531 l-71 -74 -189
248 c-105 137 -222 291 -260 342 -68 89 -70 91 -77 65 -6 -25 -88 -629 -88
-649 0 -5 -70 -9 -155 -9 -85 0 -155 0 -155 1 0 1 28 201 111 797 l43 307 167
0 168 0 155 -217z m3341 206 c50 -14 140 -103 174 -173 l24 -49 -17 -116 c-50
-343 -77 -505 -88 -524 -21 -42 -97 -123 -145 -157 -31 -22 -41 -26 -29 -12
17 20 15 27 -7 23 -5 -1 -6 3 -3 8 11 17 -4 36 -29 37 -14 1 -25 -2 -25 -8 0
-5 -4 -7 -9 -3 -5 3 -16 -1 -23 -8 -13 -13 -58 -7 -58 8 0 4 4 4 9 0 6 -3 9 3
8 14 -1 12 -7 18 -18 16 -21 -4 -44 19 -34 35 15 24 -48 4 -82 -26 -15 -15 -6
-25 15 -16 14 5 15 4 2 -10 -8 -9 -16 -12 -18 -7 -2 5 -8 9 -13 9 -6 0 -7 -5
-3 -12 4 -7 3 -8 -5 -4 -7 4 -9 17 -6 29 5 17 4 19 -4 7 -10 -14 -16 -7 -11
15 1 5 -7 2 -18 -8 -21 -19 -34 -14 -25 11 4 9 2 13 -4 9 -6 -4 -13 -3 -15 3
-2 6 -8 6 -18 0 -13 -9 -13 -11 0 -20 10 -6 11 -10 3 -10 -7 0 -13 -4 -13 -9
0 -5 8 -8 18 -6 9 1 11 0 4 -2 -7 -3 -10 -8 -8 -12 3 -4 -8 -5 -25 -3 -17 3
-29 0 -29 -7 0 -6 9 -11 21 -11 19 0 19 -1 5 -16 -17 -17 -12 -39 6 -28 7 4 8
2 4 -5 -6 -8 -12 -9 -20 -2 -7 6 -15 8 -18 6 -3 -3 -5 5 -5 17 -1 60 -4 78
-14 78 -6 0 -8 -9 -3 -22 6 -21 6 -21 -11 -5 -9 10 -15 23 -12 31 3 7 1 19 -4
27 -6 9 -9 10 -9 2 0 -7 -9 -10 -21 -8 -17 4 -19 2 -9 -11 10 -12 16 -12 29
-2 14 11 14 11 4 -3 -7 -9 -11 -18 -9 -20 2 -2 -7 -14 -20 -27 -13 -12 -24
-18 -24 -13 0 5 5 13 10 16 6 3 10 14 10 23 0 13 -2 14 -9 3 -5 -7 -11 -9 -14
-4 -7 11 -77 11 -94 0 -8 -5 -23 2 -40 19 -18 18 -28 23 -31 14 -4 -10 -6 -9
-13 1 -6 10 -8 7 -6 -8 0 -12 5 -19 9 -17 4 3 8 1 8 -5 0 -17 -40 -8 -46 11
-7 22 -20 23 -28 2 -3 -8 -2 -13 3 -10 10 7 23 -19 14 -28 -4 -3 -12 -1 -19 5
-16 13 -98 3 -117 -14 -7 -7 -22 -17 -32 -23 -12 -7 -19 -21 -18 -35 1 -13 -1
-18 -3 -11 -3 6 -15 12 -26 12 -11 0 -18 5 -15 13 2 6 11 12 20 12 8 0 19 4
23 8 4 4 2 7 -5 7 -7 0 -9 5 -5 11 4 8 9 7 15 -2 6 -10 8 -8 6 8 -4 28 -17 42
-17 19 0 -12 -5 -16 -15 -12 -9 3 -15 0 -15 -8 0 -21 -21 -24 -57 -9 -18 7
-38 12 -45 11 -7 -2 -12 5 -10 14 2 12 -2 16 -13 12 -9 -4 -22 3 -33 16 -14
18 -19 19 -19 7 0 -9 4 -14 9 -11 5 4 8 -2 6 -12 -2 -14 2 -18 17 -16 19 3 19
3 2 -15 -15 -16 -19 -16 -27 -3 -5 8 -10 10 -10 4 0 -6 9 -19 20 -29 16 -14
19 -15 15 -4 -7 19 20 45 30 29 3 -5 1 -10 -5 -10 -6 0 -9 -4 -5 -9 3 -5 18
-8 33 -5 18 3 23 2 13 -5 -7 -5 -11 -14 -7 -19 4 -7 -2 -9 -15 -7 -36 7 -8
-12 34 -23 31 -9 38 -8 34 3 -4 9 2 12 19 10 14 -1 28 -6 32 -10 4 -5 -1 -5
-10 -2 -10 3 -20 2 -23 -3 -4 -6 162 -10 448 -10 378 0 462 3 497 15 55 19 62
18 25 -3 -27 -15 -79 -17 -514 -20 -573 -3 -548 -7 -641 96 -33 37 -65 83 -71
103 -9 29 -3 89 31 330 22 162 48 311 57 331 22 53 159 182 224 213 l54 25
475 0 c311 0 489 -4 515 -11z m1768 -81 c-43 -50 -89 -104 -103 -119 l-25 -28
-435 -4 c-468 -4 -472 -4 -503 -57 -24 -40 -21 -77 8 -105 l24 -25 399 0 c325
0 406 -3 434 -14 44 -19 114 -95 140 -152 19 -44 19 -48 2 -157 -19 -127 -26
-143 -90 -212 -42 -46 -43 -47 -12 -7 18 24 41 54 52 66 25 32 53 242 39 288
-9 28 -9 23 -5 -29 3 -43 1 -63 -6 -63 -7 0 -9 -7 -5 -17 5 -12 3 -14 -8 -8
-11 7 -12 6 -2 -6 9 -11 10 -25 4 -47 -5 -17 -7 -33 -4 -35 2 -3 -1 -8 -8 -12
-9 -6 -10 0 -5 21 7 28 7 28 -8 9 -8 -11 -16 -16 -16 -12 0 5 -7 1 -16 -7 -18
-19 -30 -20 -40 -4 -4 7 -3 8 4 4 19 -12 14 -1 -10 20 -13 12 -18 13 -13 4 8
-13 7 -13 -9 -1 -15 13 -19 13 -27 0 -5 -8 -9 -9 -9 -3 0 5 6 16 13 23 10 10
7 10 -15 0 -16 -7 -28 -16 -28 -21 0 -4 -4 -8 -9 -8 -5 0 -7 8 -4 18 3 15 -25
62 -39 62 -2 0 -5 -14 -6 -32 -2 -18 -9 -45 -17 -60 -7 -16 -9 -25 -3 -22 5 4
16 20 24 38 l14 31 -4 -33 c-3 -23 -1 -30 7 -25 18 11 37 12 37 3 0 -5 -9 -12
-20 -15 -18 -6 -25 -17 -21 -38 1 -5 -3 -6 -7 -3 -5 3 -20 -3 -32 -14 -15 -13
-28 -17 -39 -11 -9 5 -23 7 -31 4 -10 -2 -9 1 3 9 44 31 50 38 20 23 -25 -12
-69 -15 -195 -15 -97 0 -157 -4 -149 -9 14 -9 7 -31 -10 -31 -6 0 -7 5 -4 10
8 13 -1 13 -27 -1 -15 -8 -19 -8 -13 1 5 8 1 7 -14 -1 -11 -8 -16 -16 -12 -19
5 -3 3 -11 -5 -18 -12 -11 -14 -9 -14 10 0 17 -3 19 -9 9 -10 -16 -18 -4 -15
27 1 21 -2 22 -65 22 -36 0 -60 -4 -54 -8 7 -5 27 -7 43 -6 26 2 29 0 19 -12
-10 -12 -14 -12 -20 -2 -7 10 -9 8 -9 -5 0 -10 -5 -15 -10 -12 -13 8 -8 -18 5
-27 5 -4 13 -2 16 4 4 6 6 0 6 -15 -2 -18 -5 -23 -14 -15 -7 5 -17 7 -23 3 -6
-4 -10 -3 -9 2 4 21 -2 33 -17 33 -12 0 -14 -3 -6 -13 13 -15 10 -43 -6 -59
-9 -9 -11 -7 -8 9 5 24 -2 36 -32 52 -18 10 -27 10 -38 0 -10 -8 -14 -9 -14 0
0 8 -4 8 -14 -1 -8 -7 -13 -15 -11 -18 4 -7 -57 -3 -77 5 -10 4 -20 15 -23 26
-4 10 -14 19 -24 19 -9 0 -22 5 -29 12 -9 9 -12 9 -12 0 0 -7 11 -17 24 -22
13 -5 27 -14 32 -21 5 -9 2 -10 -9 -6 -9 3 -27 2 -39 -3 -13 -5 -19 -9 -14 -9
5 -1 3 -7 -3 -15 -10 -12 -8 -13 8 -9 15 4 21 1 21 -11 0 -9 -5 -16 -11 -16
-5 0 -7 5 -4 10 4 6 -4 5 -19 -1 -14 -7 -23 -16 -20 -21 3 -5 12 -4 19 2 9 8
15 8 20 0 3 -5 1 -10 -6 -10 -6 0 -18 -8 -25 -17 -11 -14 -13 -15 -9 -2 3 9
-1 22 -10 29 -14 12 -18 11 -26 -1 -5 -9 -9 -9 -9 -2 0 6 -9 15 -21 18 -14 5
-18 12 -14 23 4 10 -7 4 -24 -12 -22 -21 -29 -36 -25 -49 5 -15 3 -19 -8 -14
-8 3 -21 1 -29 -4 -8 -5 222 -8 583 -7 328 2 594 1 591 -2 -8 -8 -1213 -16
-1211 -8 2 4 46 59 98 122 l95 115 448 1 c478 0 494 2 524 49 24 39 26 85 3
113 l-21 27 -413 3 -413 3 -49 34 c-53 36 -111 107 -123 149 -10 34 22 256 40
280 49 66 141 148 194 173 l60 29 588 0 588 0 -78 -92z m-892 -822 c5 3 9 0 9
-5 0 -6 -4 -11 -10 -11 -5 0 -10 -5 -10 -11 0 -5 5 -7 10 -4 6 3 10 2 10 -4 0
-5 -4 -12 -9 -15 -11 -7 -29 35 -23 54 4 11 7 11 10 2 2 -6 8 -10 13 -6z m186
-13 c1 -19 -1 -22 -8 -12 -11 17 -12 39 -1 39 4 0 8 -12 9 -27z m73 20 c-8 -3
-21 -11 -29 -17 -11 -8 -13 -8 -8 1 4 6 1 13 -5 16 -7 2 3 4 22 4 19 1 28 -2
20 -4z m314 -5 c-3 -5 -10 -5 -16 -2 -6 4 -9 1 -6 -7 3 -9 15 -13 34 -11 38 5
28 -5 -12 -11 -27 -4 -31 -2 -29 17 3 25 1 23 20 23 8 0 12 -4 9 -9z m101 2
c3 -5 2 -10 -4 -10 -5 0 -13 5 -16 10 -3 6 -2 10 4 10 5 0 13 -4 16 -10z m35
0 c0 -5 -4 -10 -10 -10 -5 0 -10 5 -10 10 0 6 5 10 10 10 6 0 10 -4 10 -10z
m-1876 -25 c-4 -8 -11 -15 -16 -15 -6 0 -5 6 2 15 7 8 14 15 16 15 2 0 1 -7
-2 -15z m-490 -20 c3 -8 1 -15 -3 -15 -5 0 -11 7 -15 15 -3 8 -1 15 3 15 5 0
11 -7 15 -15z m2046 3 c0 -4 -9 -7 -20 -5 -29 5 -33 13 -5 13 14 0 25 -4 25
-8z m-1665 -8 c3 -5 1 -10 -4 -10 -6 0 -11 5 -11 10 0 6 2 10 4 10 3 0 8 -4
11 -10z m-246 -24 c-2 -2 -15 -6 -29 -10 -25 -6 -25 -6 -2 5 12 7 22 17 23 23
0 6 3 5 6 -2 3 -7 3 -15 2 -16z m-69 -6 c-8 -5 -17 -7 -19 -4 -3 3 1 9 9 14 8
5 17 7 19 4 3 -3 -1 -9 -9 -14z m-170 -1 c0 -14 -29 -18 -39 -5 -8 9 -4 12 14
12 14 0 25 -3 25 -7z m84 -1 c-12 -6 -27 -20 -33 -32 -10 -18 -11 -18 -5 -1 3
11 7 25 7 30 0 6 12 11 26 11 25 2 25 1 5 -8z m2081 -6 c-3 -3 -11 0 -18 7 -9
10 -8 11 6 5 10 -3 15 -9 12 -12z m-651 -32 c-6 -6 -10 -3 -10 10 0 13 4 16
10 10 7 -7 7 -13 0 -20z m-1094 10 c0 -5 -5 -10 -11 -10 -5 0 -7 5 -4 10 3 6
8 10 11 10 2 0 4 -4 4 -10z m2030 6 c0 -2 -8 -10 -17 -17 -16 -13 -17 -12 -4
4 13 16 21 21 21 13z m-2139 -23 c13 -16 12 -17 -3 -4 -10 7 -18 15 -18 17 0
8 8 3 21 -13z m1116 -5 c-3 -8 -6 -5 -6 6 -1 11 2 17 5 13 3 -3 4 -12 1 -19z
m973 -13 c-7 -8 -17 -15 -23 -15 -6 0 -2 7 9 15 25 19 30 19 14 0z m-6360
-510 c0 -18 -5 -25 -20 -25 -15 0 -20 7 -20 25 0 18 5 25 20 25 15 0 20 -7 20
-25z m240 -115 l0 -141 73 3 72 3 3 88 c3 79 5 87 22 87 18 0 20 -7 20 -93 0
-118 -5 -123 -118 -131 -118 -7 -118 -7 -120 169 -1 76 1 142 4 147 3 4 14 8
25 8 18 0 19 -8 19 -140z m1190 -20 l0 -160 -115 0 c-110 0 -115 1 -115 21 0
17 5 20 25 17 l25 -5 0 128 0 129 25 0 25 0 0 -125 0 -125 45 0 45 0 0 140 c0
133 1 140 20 140 19 0 20 -7 20 -160z m120 20 l0 -140 65 0 65 0 0 80 c0 73 2
80 20 80 15 0 20 -7 20 -26 l0 -26 35 31 c20 17 47 34 61 37 44 11 105 -3 133
-30 23 -23 26 -36 29 -106 l4 -80 -231 0 c-217 0 -231 1 -241 19 -5 11 -10 83
-10 160 l0 141 25 0 25 0 0 -140z m718 113 c3 -19 -1 -23 -22 -23 -21 0 -26 5
-26 26 0 21 4 25 23 22 14 -2 23 -11 25 -25z m72 2 c0 -18 -5 -25 -20 -25 -15
0 -20 7 -20 25 0 18 5 25 20 25 15 0 20 -7 20 -25z m298 -137 c-3 -152 -4
-163 -22 -163 -18 0 -19 9 -18 160 1 88 2 161 2 163 0 1 9 2 20 2 20 0 20 -5
18 -162z m374 1 c2 -89 -1 -163 -5 -166 -4 -3 -14 -2 -22 1 -12 4 -15 35 -15
166 0 152 1 160 20 160 18 0 19 -9 22 -161z m616 133 c3 -18 -1 -22 -22 -22
-19 0 -26 5 -26 18 0 39 43 43 48 4z m72 3 c0 -18 -5 -25 -20 -25 -15 0 -20 7
-20 25 0 18 5 25 20 25 15 0 20 -7 20 -25z m-2752 -23 c3 -18 -2 -22 -22 -22
-19 0 -26 5 -26 18 0 24 7 31 28 28 9 -2 18 -13 20 -24z m75 -2 c-3 -11 -14
-20 -24 -20 -12 0 -19 7 -19 20 0 14 7 20 24 20 19 0 23 -4 19 -20z m-1531
-137 l3 -88 70 0 70 0 3 88 c3 79 5 87 22 87 18 0 20 -7 20 -90 l0 -90 70 0
70 0 0 80 c0 73 2 80 20 80 15 0 20 -7 20 -26 l0 -26 35 30 c59 52 150 55 196
6 20 -22 24 -38 28 -105 l3 -79 -391 1 -391 0 -20 26 c-26 34 -34 84 -20 127
17 52 43 66 122 66 l67 0 3 -87z m1100 -25 c2 -62 0 -129 -4 -148 -9 -42 -40
-70 -79 -70 -42 0 -39 33 4 45 l32 10 3 138 c2 127 4 137 21 137 18 0 20 -10
23 -112z m536 0 c-2 -62 -6 -112 -10 -110 -5 1 -69 2 -143 2 -131 0 -137 1
-160 25 -22 21 -25 33 -25 90 0 58 2 65 20 65 18 0 20 -7 20 -54 0 -81 9 -86
146 -86 l114 0 0 90 c0 84 1 90 20 90 20 0 21 -5 18 -112z m1226 91 c23 -18
26 -27 26 -88 0 -94 -14 -111 -91 -111 -73 0 -93 10 -108 51 -22 62 -5 134 36
158 32 18 108 13 137 -10z m166 -115 l0 -136 -29 -29 c-35 -35 -81 -40 -81 -9
0 13 7 20 19 20 40 0 51 36 51 167 0 116 1 123 20 123 19 0 20 -7 20 -136z
m321 119 c37 -22 50 -56 51 -137 l1 -68 -94 0 c-88 0 -94 2 -97 21 -3 20 1 21
72 21 l76 0 0 50 c0 62 -23 90 -75 90 -28 0 -35 4 -35 20 0 16 7 20 36 20 20
0 49 -8 65 -17z m588 2 c34 -17 41 -33 50 -105 l6 -55 70 0 70 0 3 88 c3 79 5
87 22 87 18 0 20 -7 20 -90 l0 -90 75 0 75 0 0 80 c0 73 2 80 20 80 18 0 20
-7 20 -80 l0 -80 33 0 c49 0 57 14 57 100 0 68 2 76 20 77 18 2 19 -6 22 -85
l3 -87 28 -3 c47 -6 57 12 57 99 0 72 2 79 20 79 18 0 20 -7 20 -78 0 -47 5
-83 12 -90 7 -7 39 -12 75 -12 l63 0 0 90 c0 89 0 90 25 90 25 0 25 -1 25 -90
l0 -90 75 0 75 0 0 80 c0 73 2 80 20 80 18 0 20 -7 20 -80 l0 -80 33 0 c48 0
57 15 57 97 0 66 2 73 20 73 17 0 19 -8 22 -82 l3 -83 40 0 40 0 3 88 c3 79 5
87 22 87 18 0 20 -7 20 -90 0 -109 -13 -130 -84 -130 -25 0 -48 5 -51 10 -4 7
-13 7 -24 0 -28 -14 -617 -14 -626 1 -4 5 -14 5 -25 -1 -13 -7 -139 -10 -349
-9 -256 2 -334 -1 -346 -11 -9 -8 -15 -29 -15 -56 0 -37 -3 -44 -20 -44 -18 0
-20 7 -20 55 0 42 5 60 20 75 11 11 25 20 30 20 6 0 10 27 10 61 0 54 3 64 29
90 34 33 83 39 130 14z m-4884 -64 c238 -1 385 -5 385 -11 0 -6 -159 -9 -420
-10 -231 0 -420 3 -420 8 0 14 7 17 39 16 17 -1 204 -2 416 -3z m7188 0 c157
-1 257 -5 257 -11 0 -6 -159 -9 -420 -10 -370 0 -434 3 -416 21 2 2 76 3 163
2 87 0 274 -1 416 -2z m-2719 -177 c25 -9 19 -24 -9 -24 -18 0 -25 -5 -25 -20
0 -15 7 -20 25 -20 16 0 25 -6 25 -15 0 -11 -12 -15 -44 -15 -45 0 -70 15 -42
26 8 3 12 12 9 20 -3 8 3 24 12 34 20 22 25 23 49 14z m-3384 -40 c0 -17 -5
-24 -20 -24 -14 0 -20 7 -20 23 0 16 6 23 20 24 15 1 20 -4 20 -23z m76 -1 c3
-19 -1 -23 -21 -23 -20 0 -25 5 -25 26 0 20 4 25 22 22 13 -2 22 -12 24 -25z
m644 2 c0 -18 -5 -25 -20 -25 -15 0 -20 7 -20 25 0 18 5 25 20 25 15 0 20 -7
20 -25z m78 -3 c3 -18 -1 -22 -22 -22 -19 0 -26 5 -26 18 0 39 43 43 48 4z
m3842 3 c0 -20 -5 -25 -25 -25 -18 0 -25 5 -25 18 0 24 8 32 32 32 13 0 18 -7
18 -25z m70 0 c0 -18 -5 -25 -20 -25 -15 0 -20 7 -20 25 0 18 5 25 20 25 15 0
20 -7 20 -25z"/>
<path d="M4285 8009 c-4 -6 -5 -12 -2 -15 2 -3 7 2 10 11 7 17 1 20 -8 4z"/>
<path d="M4266 7965 c-3 -9 -6 -22 -5 -28 0 -7 5 -1 10 12 5 13 8 26 5 28 -2
2 -6 -3 -10 -12z"/>
<path d="M4251 7904 c0 -11 3 -14 6 -6 3 7 2 16 -1 19 -3 4 -6 -2 -5 -13z"/>
<path d="M4318 7813 c7 -3 16 -2 19 1 4 3 -2 6 -13 5 -11 0 -14 -3 -6 -6z"/>
<path d="M4207 7761 c-4 -17 -3 -21 5 -13 5 5 8 16 6 23 -3 8 -7 3 -11 -10z"/>
<path d="M4936 7753 c-6 -14 -5 -15 5 -6 7 7 10 15 7 18 -3 3 -9 -2 -12 -12z"/>
<path d="M4192 7680 c0 -14 2 -19 5 -12 2 6 2 18 0 25 -3 6 -5 1 -5 -13z"/>
<path d="M4895 7630 c-4 -17 -5 -34 -2 -36 3 -3 8 9 12 26 4 17 5 34 2 36 -3
3 -8 -9 -12 -26z"/>
<path d="M4177 7596 c-11 -73 -9 -86 11 -85 10 0 12 3 5 6 -14 5 -18 49 -5 57
4 2 14 1 22 -4 9 -5 19 -5 27 2 7 6 22 8 33 5 11 -3 20 -1 20 4 0 5 -22 9 -49
9 -47 0 -50 2 -53 28 -2 20 -5 15 -11 -22z"/>
<path d="M4213 7613 c9 -2 23 -2 30 0 6 3 -1 5 -18 5 -16 0 -22 -2 -12 -5z"/>
<path d="M4278 7613 c12 -2 32 -2 45 0 12 2 2 4 -23 4 -25 0 -35 -2 -22 -4z"/>
<path d="M4358 7613 c7 -3 16 -2 19 1 4 3 -2 6 -13 5 -11 0 -14 -3 -6 -6z"/>
<path d="M4305 7580 c-3 -5 -1 -10 4 -10 6 0 11 5 11 10 0 6 -2 10 -4 10 -3 0
-8 -4 -11 -10z"/>
<path d="M4200 7540 c-13 -8 -12 -10 3 -10 9 0 17 5 17 10 0 12 -1 12 -20 0z"/>
<path d="M4275 7540 c-3 -5 -2 -10 4 -10 5 0 13 5 16 10 3 6 2 10 -4 10 -5 0
-13 -4 -16 -10z"/>
<path d="M4407 7508 c-7 -5 -1 -8 13 -8 14 0 31 4 39 9 10 7 6 9 -13 8 -15 -1
-33 -5 -39 -9z"/>
<path d="M4578 7513 c7 -3 16 -2 19 1 4 3 -2 6 -13 5 -11 0 -14 -3 -6 -6z"/>
<path d="M4871 7484 c0 -11 3 -14 6 -6 3 7 2 16 -1 19 -3 4 -6 -2 -5 -13z"/>
<path d="M4160 7423 l0 -68 118 1 c187 2 226 4 221 8 -3 3 -26 6 -52 7 -26 2
-47 7 -47 12 0 5 -6 4 -14 -2 -11 -9 -16 -9 -21 0 -6 8 -10 7 -16 -2 -7 -11
-9 -11 -9 -1 0 8 -5 10 -12 6 -20 -13 -69 -10 -63 4 2 6 0 12 -5 12 -5 0 -11
-8 -13 -17 -4 -17 -5 -17 -6 0 -1 13 -10 17 -36 17 -33 0 -35 2 -35 35 0 30 4
35 28 41 47 10 48 12 5 13 l-43 1 0 -67z m47 -39 c-3 -3 -12 -4 -19 -1 -8 3
-5 6 6 6 11 1 17 -2 13 -5z"/>
<path d="M4350 7480 l-105 -6 110 -2 c61 -1 117 3 125 8 12 8 11 9 -5 8 -11
-1 -67 -5 -125 -8z"/>
<path d="M4520 7486 c0 -3 9 -10 20 -16 11 -6 20 -8 20 -6 0 3 -9 10 -20 16
-11 6 -20 8 -20 6z"/>
<path d="M4580 7480 c-11 -8 -7 -9 15 -4 37 8 45 14 19 14 -10 0 -26 -5 -34
-10z"/>
<path d="M4240 7450 c20 -13 53 -13 45 0 -3 6 -18 10 -33 10 -21 0 -24 -2 -12
-10z"/>
<path d="M4314 7448 c-3 -4 11 -8 30 -8 20 0 36 2 36 4 0 8 -61 12 -66 4z"/>
<path d="M4492 7443 c59 -2 158 -2 220 0 62 1 14 3 -107 3 -121 0 -172 -2
-113 -3z"/>
<path d="M4279 7420 c-8 -5 -5 -10 10 -15 11 -3 25 -4 30 0 5 3 12 1 16 -5 4
-6 11 -7 17 -4 6 4 14 0 19 -7 7 -11 9 -10 9 4 0 9 5 17 10 17 6 0 10 -5 10
-11 0 -7 9 -9 22 -6 12 3 31 1 42 -4 19 -9 19 -9 4 4 -10 8 -15 17 -12 20 4 3
-2 6 -12 6 -11 -1 -49 1 -86 4 -37 2 -72 1 -79 -3z"/>
<path d="M4540 7419 c-19 -4 37 -7 125 -7 88 0 156 1 150 3 -18 7 -240 10
-275 4z"/>
<path d="M4238 7413 c7 -3 16 -2 19 1 4 3 -2 6 -13 5 -11 0 -14 -3 -6 -6z"/>
<path d="M4554 7375 c26 -19 42 -19 26 0 -7 8 -20 15 -29 15 -13 -1 -13 -3 3
-15z"/>
<path d="M4590 7386 c0 -2 11 -6 25 -8 13 -3 22 -1 19 3 -5 9 -44 13 -44 5z"/>
<path d="M4652 7384 c4 -3 21 -8 40 -10 25 -4 29 -2 18 5 -16 11 -68 15 -58 5z"/>
<path d="M4730 7380 c0 -5 14 -10 32 -10 35 0 30 12 -7 17 -14 2 -25 -1 -25
-7z"/>
<path d="M4185 7329 c-14 -5 -6 -8 28 -8 27 -1 46 3 43 8 -7 11 -44 11 -71 0z"/>
<path d="M4330 7331 c0 -5 25 -9 55 -9 30 1 55 5 55 10 0 4 -25 8 -55 8 -30 0
-55 -4 -55 -9z"/>
<path d="M4479 7329 c-10 -6 -7 -9 14 -9 29 0 35 5 14 13 -8 3 -20 1 -28 -4z"/>
<path d="M4298 7323 c7 -3 16 -2 19 1 4 3 -2 6 -13 5 -11 0 -14 -3 -6 -6z"/>
<path d="M4557 7323 c18 -2 50 -2 70 0 21 2 7 4 -32 4 -38 0 -55 -2 -38 -4z"/>
<path d="M4738 7323 c7 -3 16 -2 19 1 4 3 -2 6 -13 5 -11 0 -14 -3 -6 -6z"/>
<path d="M4498 7293 c7 -3 16 -2 19 1 4 3 -2 6 -13 5 -11 0 -14 -3 -6 -6z"/>
<path d="M4538 7293 c7 -3 16 -2 19 1 4 3 -2 6 -13 5 -11 0 -14 -3 -6 -6z"/>
<path d="M4608 7293 c6 -2 18 -2 25 0 6 3 1 5 -13 5 -14 0 -19 -2 -12 -5z"/>
<path d="M4518 7263 c7 -3 16 -2 19 1 4 3 -2 6 -13 5 -11 0 -14 -3 -6 -6z"/>
<path d="M4573 7263 c15 -2 37 -2 50 0 12 2 0 4 -28 4 -27 0 -38 -2 -22 -4z"/>
<path d="M4728 7263 c17 -3 21 -9 17 -23 -3 -10 -1 -21 5 -25 5 -3 10 -1 10 5
0 6 5 8 10 5 6 -3 10 -2 10 3 0 5 15 7 33 5 l32 -3 -35 11 c-19 6 -39 15 -44
20 -6 5 -21 8 -35 8 -25 -2 -25 -2 -3 -6z"/>
<path d="M4853 7230 c0 -25 2 -35 4 -22 2 12 2 32 0 45 -2 12 -4 2 -4 -23z"/>
<path d="M4664 7228 c10 -6 22 -6 26 -2 5 5 -3 10 -18 11 -22 1 -24 0 -8 -9z"/>
<path d="M4810 7176 c0 -2 7 -6 15 -10 8 -3 15 -1 15 4 0 6 -7 10 -15 10 -8 0
-15 -2 -15 -4z"/>
<path d="M4770 7140 c0 -5 5 -10 10 -10 6 0 10 5 10 10 0 6 -4 10 -10 10 -5 0
-10 -4 -10 -10z"/>
<path d="M9060 7836 c0 -2 7 -7 16 -10 8 -3 12 -2 9 4 -6 10 -25 14 -25 6z"/>
<path d="M3488 7813 c6 -2 18 -2 25 0 6 3 1 5 -13 5 -14 0 -19 -2 -12 -5z"/>
<path d="M3638 7413 c7 -3 16 -2 19 1 4 3 -2 6 -13 5 -11 0 -14 -3 -6 -6z"/>
<path d="M3490 7379 c0 -5 5 -7 10 -4 6 3 10 8 10 11 0 2 -4 4 -10 4 -5 0 -10
-5 -10 -11z"/>
<path d="M7819 5823 c-13 -16 -12 -17 4 -4 9 7 17 15 17 17 0 8 -8 3 -21 -13z"/>
<path d="M7650 5660 c-9 -6 -10 -10 -3 -10 6 0 15 5 18 10 8 12 4 12 -15 0z"/>
<path d="M7524 5604 c4 -11 1 -14 -12 -10 -9 3 -24 1 -32 -5 -13 -9 -12 -10 3
-5 26 8 48 -14 31 -31 -7 -7 -17 -13 -23 -13 -6 0 -11 -5 -11 -11 0 -6 -7 -9
-14 -6 -10 4 -13 1 -10 -8 4 -9 -3 -16 -20 -21 -14 -3 -26 -10 -26 -15 0 -17
15 -9 79 41 36 28 59 50 53 50 -8 0 -11 10 -8 25 3 14 0 25 -6 25 -5 0 -7 -7
-4 -16z"/>
<path d="M7335 5580 c3 -5 11 -10 16 -10 6 0 7 5 4 10 -3 6 -11 10 -16 10 -6
0 -7 -4 -4 -10z"/>
<path d="M5070 5532 c0 -4 10 -13 23 -21 22 -14 22 -14 3 8 -20 22 -26 25 -26
13z"/>
<path d="M7246 5528 c3 -5 10 -6 15 -3 13 9 11 12 -6 12 -8 0 -12 -4 -9 -9z"/>
<path d="M7329 5517 c8 -9 11 -20 7 -24 -3 -3 2 -15 11 -25 15 -17 15 -20 3
-28 -8 -5 -23 -7 -32 -4 -10 3 -18 1 -18 -5 0 -21 22 -21 56 0 24 15 32 24 24
29 -7 4 -10 13 -6 19 5 7 1 8 -10 4 -11 -4 -15 -2 -11 4 4 6 -3 19 -16 29 -19
16 -20 17 -8 1z"/>
<path d="M7240 5489 c0 -5 5 -7 10 -4 6 3 10 8 10 11 0 2 -4 4 -10 4 -5 0 -10
-5 -10 -11z"/>
<path d="M5237 5471 c5 -20 -21 -36 -39 -24 -7 3 -8 1 -4 -6 4 -6 30 -23 58
-37 42 -21 48 -22 40 -7 -8 13 -6 23 5 35 13 15 14 20 3 33 -12 15 -14 15 -22
1 -11 -20 -28 -21 -28 -2 0 8 -4 17 -9 20 -5 4 -7 -2 -4 -13z m63 -20 c0 -5
-7 -12 -16 -15 -14 -5 -15 -4 -4 9 14 17 20 19 20 6z"/>
<path d="M7317 5454 c3 -7 9 -14 14 -14 14 0 10 17 -5 23 -10 4 -13 1 -9 -9z"/>
<path d="M7115 5450 c-2 -3 23 -5 55 -5 32 0 56 4 53 8 -5 9 -102 7 -108 -3z"/>
<path d="M7250 5446 c7 -7 14 -6 21 1 9 9 7 12 -9 10 -14 -1 -18 -5 -12 -11z"/>
<path d="M7030 5420 c0 -13 18 -22 24 -11 3 5 -1 11 -9 15 -8 3 -15 1 -15 -4z"/>
<path d="M5305 5410 c3 -5 8 -10 11 -10 2 0 4 5 4 10 0 6 -5 10 -11 10 -5 0
-7 -4 -4 -10z"/>
<path d="M5410 5391 c0 -8 -6 -11 -15 -7 -13 4 -13 2 -5 -14 14 -26 13 -29
-12 -23 -23 5 -23 5 -3 -9 18 -13 87 -43 125 -55 8 -2 -1 5 -20 16 -19 11 -30
21 -25 22 6 1 15 3 20 4 6 2 16 3 23 4 6 0 12 5 12 11 0 5 -7 7 -15 4 -11 -5
-13 -2 -9 9 5 14 1 15 -26 7 -34 -10 -63 -3 -54 12 4 6 10 5 15 -3 4 -7 10
-11 13 -9 2 3 -2 14 -10 24 -8 12 -14 14 -14 7z"/>
<path d="M6542 5365 c0 -16 2 -22 5 -12 2 9 2 23 0 30 -3 6 -5 -1 -5 -18z"/>
<path d="M5575 5370 c3 -5 8 -10 11 -10 2 0 4 5 4 10 0 6 -5 10 -11 10 -5 0
-7 -4 -4 -10z"/>
<path d="M6256 5365 c-3 -8 -1 -15 4 -15 6 0 10 7 10 15 0 8 -2 15 -4 15 -2 0
-6 -7 -10 -15z"/>
<path d="M5840 5355 c-9 -11 -7 -16 9 -25 13 -6 21 -7 21 -1 0 5 9 8 20 6 11
-2 18 0 15 4 -2 5 5 11 17 14 12 4 19 9 16 12 -3 4 -16 2 -27 -5 -15 -7 -27
-8 -40 -1 -14 8 -22 7 -31 -4z m20 -5 c0 -5 -5 -10 -11 -10 -5 0 -7 5 -4 10 3
6 8 10 11 10 2 0 4 -4 4 -10z"/>
<path d="M6003 5345 c0 -8 4 -12 9 -9 5 3 6 10 3 15 -9 13 -12 11 -12 -6z"/>
<path d="M5521 5322 c-18 -19 -19 -24 -5 -18 10 4 21 1 25 -5 10 -17 48 -19
42 -3 -2 7 3 14 12 16 15 3 14 6 -6 23 -17 15 -21 16 -17 4 8 -20 -6 -44 -21
-35 -16 10 -13 29 3 23 10 -4 13 -1 9 9 -7 19 -14 17 -42 -14z"/>
<path d="M5952 5336 c7 -8 15 -12 17 -11 5 6 -10 25 -20 25 -5 0 -4 -6 3 -14z"/>
<path d="M6051 5326 c-9 -10 -8 -15 4 -20 10 -4 15 1 15 14 0 24 -4 25 -19 6z"/>
<path d="M6015 5270 c3 -5 11 -10 16 -10 6 0 7 5 4 10 -3 6 -11 10 -16 10 -6
0 -7 -4 -4 -10z"/>
<path d="M4330 3676 c0 -8 -10 -17 -22 -19 -20 -4 -19 -4 5 -6 21 -1 27 4 27
19 0 11 -2 20 -5 20 -3 0 -5 -6 -5 -14z"/>
<path d="M6668 3653 c7 -3 16 -2 19 1 4 3 -2 6 -13 5 -11 0 -14 -3 -6 -6z"/>
<path d="M8160 4471 c-19 -10 -42 -31 -51 -47 -9 -16 -30 -122 -48 -243 -26
-172 -30 -218 -21 -241 22 -53 33 -55 404 -55 375 0 390 2 425 59 22 35 86
443 76 483 -3 13 -20 32 -38 43 -30 19 -52 20 -372 20 -313 0 -343 -2 -375
-19z"/>
<path d="M7761 4114 c0 -11 3 -14 6 -6 3 7 2 16 -1 19 -3 4 -6 -2 -5 -13z"/>
<path d="M7751 4044 c0 -11 3 -14 6 -6 3 7 2 16 -1 19 -3 4 -6 -2 -5 -13z"/>
<path d="M9165 3963 c-3 -26 -9 -58 -12 -71 l-5 -22 -18 20 c-16 18 -18 18
-24 4 -3 -9 -3 -20 0 -26 4 -6 1 -14 -6 -18 -15 -9 -5 -30 14 -30 23 0 47 49
58 117 5 35 8 67 5 69 -2 3 -8 -17 -12 -43z m-40 -83 c3 -5 1 -10 -4 -10 -6 0
-11 5 -11 10 0 6 2 10 4 10 3 0 8 -4 11 -10z"/>
<path d="M7737 3955 c-4 -22 -6 -53 -6 -70 1 -16 5 -3 10 30 10 67 6 102 -4
40z"/>
<path d="M8780 3850 c-8 -5 -10 -10 -5 -10 6 0 17 5 25 10 8 5 11 10 5 10 -5
0 -17 -5 -25 -10z"/>
<path d="M7730 3844 c0 -6 7 -19 16 -30 14 -18 14 -18 3 6 -14 31 -19 36 -19
24z"/>
<path d="M8016 3801 c-3 -4 4 -7 14 -8 11 -1 22 2 24 6 3 4 -4 7 -14 8 -11 1
-22 -2 -24 -6z"/>
<path d="M7890 3776 c0 -2 7 -7 16 -10 8 -3 12 -2 9 4 -6 10 -25 14 -25 6z"/>
<path d="M7941 3766 c-8 -10 -9 -16 -1 -21 12 -7 42 19 33 29 -10 10 -20 7
-32 -8z"/>
<path d="M8890 3770 c0 -5 7 -7 15 -4 8 4 15 8 15 10 0 2 -7 4 -15 4 -8 0 -15
-4 -15 -10z"/>
<path d="M9499 3843 c-8 -10 -21 -27 -29 -38 -14 -18 -13 -19 1 -7 13 10 19
10 28 -2 6 -7 22 -13 36 -13 20 0 22 2 10 13 -7 8 -15 19 -17 26 -4 10 -8 10
-21 -1 -22 -17 -22 -7 -1 14 9 9 14 18 12 21 -3 2 -11 -4 -19 -13z"/>
<path d="M9548 3843 c12 -2 32 -2 45 0 12 2 2 4 -23 4 -25 0 -35 -2 -22 -4z"/>
<path d="M10008 3843 c7 -3 16 -2 19 1 4 3 -2 6 -13 5 -11 0 -14 -3 -6 -6z"/>
<path d="M9730 3821 c0 -10 19 -25 25 -20 1 2 -3 10 -11 17 -8 7 -14 8 -14 3z"/>
<path d="M6033 3050 c-27 -11 -83 -86 -83 -112 0 -16 10 -18 111 -18 l112 0
-5 52 c-8 77 -61 108 -135 78z"/>
<path d="M3582 3048 c-16 -16 -16 -100 0 -116 7 -7 31 -12 55 -12 l43 0 0 70
0 70 -43 0 c-24 0 -48 -5 -55 -12z"/>
<path d="M4174 3050 c-32 -13 -84 -78 -84 -105 l0 -25 110 0 110 0 0 35 c0 42
-22 90 -45 99 -22 8 -65 7 -91 -4z"/>
<path d="M6462 3048 c-7 -7 -12 -33 -12 -58 0 -57 12 -70 66 -70 47 0 54 9 54
70 0 61 -7 70 -54 70 -23 0 -47 -5 -54 -12z"/>
<path d="M7566 3047 c-13 -10 -17 -24 -14 -67 l3 -55 38 -3 c52 -4 67 11 67
69 0 38 -4 51 -19 59 -26 14 -54 13 -75 -3z"/>
</g>
</svg>
